:FULLY-SPECIFIED
:FORCE-ALL-JOINTS-BE-3DOF
:DEGREES
645
root 5.60737 16.4557 -2.81385 15.0129 12.785 -1.24325
lfemur -15.9869 21.8476 -26.4785
ltibia 35.3467 0 0
lfoot -35.7202 12.2624 0
ltoes 22.7411 0 0
rfemur -57.2364 -26.2058 30.4417
rtibia 66.2035 0 0
rfoot -3.65842 -2.44128 0
rtoes 0.734507 0 0
lowerback -0.783695 -3.78768 -4.87991
upperback -2.05729 -5.05754 0.528407
thorax -1.21224 -2.46084 3.25955
lowerneck -9.90501 -7.3834 -0.0568627
upperneck 6.64917 -10.4095 6.05182
head 4.11896 -4.85418 1.28106
lclavicle -3.18967e-14 -1.45776e-14 0
lhumerus -39.124 -66.6061 120.456
lradius 72.3656 0 0
lwrist 23.6723 0 0
lhand -6.54699 2.21744 0
lfingers 7.12502 0 0
lthumb 19.3053 31.2644 0
rclavicle -3.18967e-14 -1.45776e-14 0
rhumerus -29.3756 -1.57321 -72.0838
rradius 71.9769 0 0
rwrist -25.5803 0 0
rhand -29.63 -42.1504 0
rfingers 7.12502 0 0
rthumb -2.96012 -792.109 0
646
root 5.59515 16.4291 -2.76028 15.4083 11.7891 -1.01295
lfemur -16.189 22.2513 -26.8274
ltibia 35.5736 0 0
lfoot -35.9193 12.2679 0
ltoes 22.4009 0 0
rfemur -58.0157 -26.7854 31.2782
rtibia 66.4577 0 0
rfoot -4.32798 -2.65561 0
rtoes 1.0565 0 0
lowerback -0.756187 -3.82278 -5.02309
upperback -2.02182 -5.10692 0.394754
thorax -1.18668 -2.48564 3.20138
lowerneck -9.87522 -7.37162 -0.130654
upperneck 6.14454 -10.373 6.24262
head 3.98517 -4.84443 1.3718
lclavicle -3.2764e-14 -1.3631e-14 0
lhumerus -39.8972 -67.2508 121.392
lradius 72.4778 0 0
lwrist 23.8559 0 0
lhand -6.31671 2.43574 0
lfingers 7.12502 0 0
lthumb 19.5268 31.4615 0
rclavicle -3.2764e-14 -1.3631e-14 0
rhumerus -31.1301 -2.15186 -72.7177
rradius 70.3136 0 0
rwrist -24.2474 0 0
rhand -29.5936 -43.0103 0
rfingers 7.12502 0 0
rthumb -2.92498 -792.969 0
647
root 5.58293 16.4026 -2.70672 15.8037 10.7932 -0.782656
lfemur -16.3912 22.655 -27.1764
ltibia 35.8006 0 0
lfoot -36.1184 12.2733 0
ltoes 22.0606 0 0
rfemur -58.795 -27.365 32.1147
rtibia 66.712 0 0
rfoot -4.99754 -2.86994 0
rtoes 1.3785 0 0
lowerback -0.728679 -3.85787 -5.16627
upperback -1.98634 -5.15631 0.261101
thorax -1.16112 -2.51044 3.14322
lowerneck -9.84543 -7.35983 -0.204446
upperneck 5.6399 -10.3364 6.43343
head 3.85139 -4.83467 1.46253
lclavicle -3.36313e-14 -1.26844e-14 0
lhumerus -40.6705 -67.8956 122.328
lradius 72.5899 0 0
lwrist 24.0394 0 0
lhand -6.08644 2.65405 0
lfingers 7.12502 0 0
lthumb 19.7483 31.6587 0
rclavicle -3.36313e-14 -1.26844e-14 0
rhumerus -32.8847 -2.73051 -73.3517
rradius 68.6503 0 0
rwrist -22.9144 0 0
rhand -29.5572 -43.8702 0
rfingers 7.12502 0 0
rthumb -2.88984 -793.83 0
648
root 5.57071 16.376 -2.65315 16.1991 9.79728 -0.552359
lfemur -16.5933 23.0588 -27.5253
ltibia 36.0275 0 0
lfoot -36.3175 12.2788 0
ltoes 21.7204 0 0
rfemur -59.5743 -27.9446 32.9512
rtibia 66.9662 0 0
rfoot -5.6671 -3.08427 0
rtoes 1.7005 0 0
lowerback -0.701171 -3.89297 -5.30945
upperback -1.95087 -5.2057 0.127448
thorax -1.13556 -2.53524 3.08505
lowerneck -9.81564 -7.34805 -0.278238
upperneck 5.13526 -10.2999 6.62423
head 3.71761 -4.82492 1.55327
lclavicle -3.44986e-14 -1.17378e-14 0
lhumerus -41.4437 -68.5403 123.264
lradius 72.702 0 0
lwrist 24.223 0 0
lhand -5.85616 2.87235 0
lfingers 7.12502 0 0
lthumb 19.9698 31.8559 0
rclavicle -3.44986e-14 -1.17378e-14 0
rhumerus -34.6392 -3.30916 -73.9857
rradius 66.9871 0 0
rwrist -21.5815 0 0
rhand -29.5208 -44.7301 0
rfingers 7.12502 0 0
rthumb -2.8547 -794.69 0
649
root 5.55849 16.3494 -2.59959 16.5945 8.80137 -0.322061
lfemur -16.7954 23.4625 -27.8743
ltibia 36.2544 0 0
lfoot -36.5167 12.2842 0
ltoes 21.3802 0 0
rfemur -60.3536 -28.5243 33.7878
rtibia 67.2205 0 0
rfoot -6.33665 -3.2986 0
rtoes 2.0225 0 0
lowerback -0.673663 -3.92807 -5.45263
upperback -1.91539 -5.25509 -0.00620486
thorax -1.11 -2.56004 3.02688
lowerneck -9.78585 -7.33627 -0.352029
upperneck 4.63062 -10.2633 6.81504
head 3.58383 -4.81516 1.644
lclavicle -3.53659e-14 -1.07912e-14 0
lhumerus -42.217 -69.185 124.2
lradius 72.8141 0 0
lwrist 24.4066 0 0
lhand -5.62589 3.09065 0
lfingers 7.12502 0 0
lthumb 20.1913 32.0531 0
rclavicle -3.53659e-14 -1.07912e-14 0
rhumerus -36.3937 -3.88781 -74.6197
rradius 65.3238 0 0
rwrist -20.2485 0 0
rhand -29.4845 -45.59 0
rfingers 7.12502 0 0
rthumb -2.81956 -795.551 0
650
root 5.54627 16.3228 -2.54602 16.9899 7.80546 -0.0917643
lfemur -16.9975 23.8662 -28.2232
ltibia 36.4813 0 0
lfoot -36.7158 12.2897 0
ltoes 21.04 0 0
rfemur -61.1328 -29.1039 34.6243
rtibia 67.4747 0 0
rfoot -7.00621 -3.51293 0
rtoes 2.34449 0 0
lowerback -0.646154 -3.96317 -5.59581
upperback -1.87992 -5.30447 -0.139858
thorax -1.08444 -2.58484 2.96871
lowerneck -9.75605 -7.32449 -0.425821
upperneck 4.12599 -10.2268 7.00584
head 3.45004 -4.80541 1.73474
lclavicle -3.62333e-14 -9.84458e-15 0
lhumerus -42.9902 -69.8297 125.137
lradius 72.9263 0 0
lwrist 24.5902 0 0
lhand -5.39561 3.30895 0
lfingers 7.12502 0 0
lthumb 20.4128 32.2502 0
rclavicle -3.62333e-14 -9.84458e-15 0
rhumerus -38.1482 -4.46645 -75.2536
rradius 63.6605 0 0
rwrist -18.9156 0 0
rhand -29.4481 -46.45 0
rfingers 7.12502 0 0
rthumb -2.78442 -796.411 0
651
root 5.53405 16.2962 -2.49246 17.3853 6.80954 0.138533
lfemur -17.1996 24.27 -28.5722
ltibia 36.7082 0 0
lfoot -36.9149 12.2951 0
ltoes 20.6997 0 0
rfemur -61.9121 -29.6835 35.4608
rtibia 67.729 0 0
rfoot -7.67577 -3.72726 0
rtoes 2.66649 0 0
lowerback -0.618646 -3.99827 -5.73899
upperback -1.84444 -5.35386 -0.273511
thorax -1.05888 -2.60964 2.91055
lowerneck -9.72626 -7.31271 -0.499612
upperneck 3.62135 -10.1902 7.19665
head 3.31626 -4.79565 1.82547
lclavicle -3.71006e-14 -8.89799e-15 0
lhumerus -43.7635 -70.4745 126.073
lradius 73.0384 0 0
lwrist 24.7737 0 0
lhand -5.16534 3.52726 0
lfingers 7.12502 0 0
lthumb 20.6343 32.4474 0
rclavicle -3.71006e-14 -8.89799e-15 0
rhumerus -39.9027 -5.0451 -75.8876
rradius 61.9973 0 0
rwrist -17.5826 0 0
rhand -29.4117 -47.3099 0
rfingers 7.12502 0 0
rthumb -2.74928 -797.272 0
652
root 5.52183 16.2696 -2.43889 17.7807 5.81363 0.36883
lfemur -17.4017 24.6737 -28.9211
ltibia 36.9351 0 0
lfoot -37.114 12.3006 0
ltoes 20.3595 0 0
rfemur -62.6914 -30.2631 36.2973
rtibia 67.9832 0 0
rfoot -8.34533 -3.94159 0
rtoes 2.98849 0 0
lowerback -0.591138 -4.03337 -5.88217
upperback -1.80897 -5.40325 -0.407164
thorax -1.03332 -2.63444 2.85238
lowerneck -9.69647 -7.30093 -0.573404
upperneck 3.11671 -10.1537 7.38745
head 3.18248 -4.7859 1.91621
lclavicle -3.79679e-14 -7.95139e-15 0
lhumerus -44.5367 -71.1192 127.009
lradius 73.1505 0 0
lwrist 24.9573 0 0
lhand -4.93506 3.74556 0
lfingers 7.12502 0 0
lthumb 20.8558 32.6446 0
rclavicle -3.79679e-14 -7.95139e-15 0
rhumerus -41.6572 -5.62375 -76.5216
rradius 60.334 0 0
rwrist -16.2497 0 0
rhand -29.3753 -48.1698 0
rfingers 7.12502 0 0
rthumb -2.71414 -798.132 0
653
root 5.51646 16.2518 -2.31548 17.7457 4.82898 0.384636
lfemur -17.8943 24.8316 -28.5704
ltibia 38.9637 0 0
lfoot -35.1934 11.537 0
ltoes 19.429 0 0
rfemur -61.9348 -29.6471 35.9919
rtibia 67.9473 0 0
rfoot -9.08047 -4.12134 0
rtoes 2.95491 0 0
lowerback -0.606925 -4.15087 -5.63038
upperback -1.82011 -5.55899 -0.336515
thorax -1.04749 -2.71508 2.78485
lowerneck -9.72251 -7.16124 -0.5286
upperneck 3.04355 -9.95598 7.15951
head 3.14238 -4.6965 1.84678
lclavicle -3.5431e-14 -7.89459e-15 0
lhumerus -42.6569 -71.0978 124.98
lradius 73.7718 0 0
lwrist 25.098 0 0
lhand -5.26555 3.56017 0
lfingers 7.12502 0 0
lthumb 20.5378 32.4876 0
rclavicle -3.5431e-14 -7.89459e-15 0
rhumerus -42.0992 -5.96394 -75.2946
rradius 60.6117 0 0
rwrist -16.4342 0 0
rhand -29.2869 -48.1785 0
rfingers 7.12502 0 0
rthumb -2.62872 -798.141 0
654
root 5.51109 16.234 -2.19207 17.7107 3.84432 0.400442
lfemur -18.387 24.9895 -28.2198
ltibia 40.9922 0 0
lfoot -33.2727 10.7734 0
ltoes 18.4984 0 0
rfemur -61.1781 -29.031 35.6865
rtibia 67.9113 0 0
rfoot -9.81561 -4.30109 0
rtoes 2.92133 0 0
lowerback -0.622711 -4.26837 -5.37859
upperback -1.83125 -5.71472 -0.265866
thorax -1.06166 -2.79572 2.71733
lowerneck -9.74856 -7.02156 -0.483797
upperneck 2.97039 -9.75826 6.93156
head 3.10227 -4.6071 1.77735
lclavicle -3.28942e-14 -7.8378e-15 0
lhumerus -40.7771 -71.0763 122.951
lradius 74.3932 0 0
lwrist 25.2387 0 0
lhand -5.59604 3.37478 0
lfingers 7.12502 0 0
lthumb 20.2197 32.3307 0
rclavicle -3.28942e-14 -7.8378e-15 0
rhumerus -42.5411 -6.30413 -74.0675
rradius 60.8894 0 0
rwrist -16.6187 0 0
rhand -29.1984 -48.1872 0
rfingers 7.12502 0 0
rthumb -2.54329 -798.151 0
655
root 5.50572 16.2162 -2.06866 17.6756 2.85967 0.416248
lfemur -18.8796 25.1475 -27.8691
ltibia 43.0208 0 0
lfoot -31.3521 10.0098 0
ltoes 17.5679 0 0
rfemur -60.4215 -28.415 35.3812
rtibia 67.8754 0 0
rfoot -10.5508 -4.48084 0
rtoes 2.88774 0 0
lowerback -0.638498 -4.38587 -5.1268
upperback -1.84239 -5.87046 -0.195216
thorax -1.07583 -2.87635 2.6498
lowerneck -9.7746 -6.88187 -0.438993
upperneck 2.89723 -9.56054 6.70362
head 3.06217 -4.5177 1.70792
lclavicle -3.03573e-14 -7.781e-15 0
lhumerus -38.8974 -71.0549 120.923
lradius 75.0145 0 0
lwrist 25.3794 0 0
lhand -5.92652 3.18939 0
lfingers 7.12502 0 0
lthumb 19.9017 32.1737 0
rclavicle -3.03573e-14 -7.781e-15 0
rhumerus -42.9831 -6.64431 -72.8405
rradius 61.1671 0 0
rwrist -16.8033 0 0
rhand -29.11 -48.1958 0
rfingers 7.12502 0 0
rthumb -2.45787 -798.16 0
656
root 5.50035 16.1984 -1.94524 17.6406 1.87501 0.432055
lfemur -19.3723 25.3054 -27.5184
ltibia 45.0493 0 0
lfoot -29.4314 9.24622 0
ltoes 16.6374 0 0
rfemur -59.6649 -27.7989 35.0758
rtibia 67.8395 0 0
rfoot -11.2859 -4.66058 0
rtoes 2.85416 0 0
lowerback -0.654285 -4.50337 -4.87501
upperback -1.85353 -6.02619 -0.124567
thorax -1.09 -2.95699 2.58227
lowerneck -9.80065 -6.74219 -0.39419
upperneck 2.82407 -9.36282 6.47567
head 3.02207 -4.4283 1.63849
lclavicle -2.78204e-14 -7.72421e-15 0
lhumerus -37.0176 -71.0335 118.894
lradius 75.6358 0 0
lwrist 25.5202 0 0
lhand -6.25701 3.00399 0
lfingers 7.12502 0 0
lthumb 19.5837 32.0168 0
rclavicle -2.78204e-14 -7.72421e-15 0
rhumerus -43.4251 -6.9845 -71.6134
rradius 61.4448 0 0
rwrist -16.9878 0 0
rhand -29.0215 -48.2045 0
rfingers 7.12502 0 0
rthumb -2.37245 -798.17 0
657
root 5.49498 16.1806 -1.82183 17.6056 0.890361 0.447861
lfemur -19.8649 25.4633 -27.1677
ltibia 47.0779 0 0
lfoot -27.5108 8.48263 0
ltoes 15.7068 0 0
rfemur -58.9082 -27.1829 34.7704
rtibia 67.8035 0 0
rfoot -12.021 -4.84033 0
rtoes 2.82058 0 0
lowerback -0.670071 -4.62087 -4.62322
upperback -1.86467 -6.18193 -0.0539178
thorax -1.10417 -3.03763 2.51475
lowerneck -9.82669 -6.6025 -0.349386
upperneck 2.75091 -9.1651 6.24773
head 2.98197 -4.3389 1.56906
lclavicle -2.52835e-14 -7.66741e-15 0
lhumerus -35.1378 -71.0121 116.865
lradius 76.2572 0 0
lwrist 25.6609 0 0
lhand -6.5875 2.8186 0
lfingers 7.12502 0 0
lthumb 19.2657 31.8598 0
rclavicle -2.52835e-14 -7.66741e-15 0
rhumerus -43.867 -7.32469 -70.3864
rradius 61.7225 0 0
rwrist -17.1723 0 0
rhand -28.9331 -48.2132 0
rfingers 7.12502 0 0
rthumb -2.28702 -798.179 0
